<?xml version="1.0" standalone="no"?>
<!DOCTYPE svg PUBLIC "-//W3C//DTD SVG 20010904//EN"
 "http://www.w3.org/TR/2001/REC-SVG-20010904/DTD/svg10.dtd">
<svg version="1.0" xmlns="http://www.w3.org/2000/svg"
 width="600.000000pt" height="600.000000pt" viewBox="0 0 600.000000 600.000000"
 preserveAspectRatio="xMidYMid meet">
<metadata>
Created by potrace 1.16, written by Peter Selinger 2001-2019
</metadata>
<g transform="translate(0.000000,600.000000) scale(0.006000,-0.006000)"
fill="#000000" stroke="none">
<path d="M25895 76500 c-227 -31 -350 -172 -450 -517 -32 -108 -69 -324 -87
-503 -11 -111 -13 -1539 -13 -8075 0 -4367 2 -8286 5 -8710 5 -694 3 -785 -13
-923 -43 -377 -123 -627 -233 -738 -96 -97 -198 -56 -286 111 -58 112 -93 240
-163 601 -139 707 -178 828 -355 1104 -175 273 -212 388 -354 1100 -30 151
-67 315 -81 364 -73 250 -168 395 -300 457 -109 52 -201 59 -415 34 -100 -12
-277 -15 -890 -15 -613 0 -790 3 -890 15 -213 25 -321 15 -428 -39 -64 -32
-149 -125 -195 -213 -77 -147 -104 -254 -232 -908 -60 -306 -99 -443 -162
-571 -46 -93 -127 -185 -197 -222 -47 -25 -60 -27 -166 -26 -63 0 -164 2 -225
4 -137 5 -191 -11 -267 -78 -90 -81 -158 -207 -211 -393 -14 -46 -59 -255
-101 -464 -128 -635 -161 -733 -349 -1025 -163 -254 -236 -439 -291 -740 -45
-245 -49 -318 -56 -1255 -7 -830 -9 -911 -28 -1045 -54 -386 -131 -606 -309
-880 -165 -256 -241 -449 -294 -755 -52 -297 -50 103 -46 -7175 3 -6355 4
-6752 20 -6865 60 -412 130 -611 318 -905 51 -80 114 -190 140 -245 81 -172
95 -228 249 -960 72 -345 136 -508 289 -745 177 -273 238 -437 326 -880 55
-279 121 -568 151 -660 44 -135 114 -277 205 -415 133 -203 199 -347 253 -545
14 -52 57 -255 96 -450 103 -515 126 -599 207 -752 70 -134 176 -221 301 -247
73 -15 204 -14 347 4 174 22 1542 22 1725 0 150 -18 270 -19 342 -4 134 29
237 117 312 268 78 155 101 245 226 888 74 382 117 517 211 658 53 78 93 114
167 148 43 20 59 22 182 18 298 -10 320 -8 382 22 75 37 129 100 183 212 60
123 97 255 150 534 95 493 125 640 150 726 69 238 187 379 288 346 39 -13 105
-79 140 -141 76 -132 139 -388 167 -676 18 -190 21 -429 13 -1076 -4 -356 -5
-707 -1 -780 31 -597 172 -999 387 -1107 107 -54 222 -63 451 -36 91 11 234
15 520 15 286 0 429 -4 520 -15 236 -28 369 -16 470 42 171 98 285 366 352
826 l23 152 3 21450 c2 15530 0 21490 -8 21595 -40 528 -161 884 -344 1009
-79 55 -156 74 -291 73 -66 -1 -147 -6 -180 -12 -33 -6 -240 -14 -460 -17
-326 -4 -432 -2 -565 11 -242 24 -269 25 -335 16z m-3842 -23545 c181 -21
1675 -17 1860 5 279 33 439 -46 550 -271 69 -142 98 -248 182 -664 42 -209 87
-423 100 -476 55 -217 122 -366 257 -577 147 -228 221 -409 272 -663 65 -320
61 -103 61 -3239 0 -2965 1 -2901 -41 -3160 -22 -134 -76 -339 -119 -445 -45
-112 -86 -187 -187 -344 -189 -290 -271 -552 -313 -990 -12 -120 -15 -317 -15
-887 0 -403 -5 -801 -10 -886 -43 -634 -170 -1001 -387 -1115 -106 -56 -221
-66 -453 -38 -183 22 -1551 22 -1725 0 -143 -18 -274 -19 -347 -4 -124 26
-231 113 -300 245 -78 149 -103 240 -198 714 -126 629 -161 730 -350 1020
-202 311 -290 595 -330 1075 -6 77 -10 1439 -10 3820 0 3972 -1 3851 50 4148
52 308 126 499 292 755 83 129 171 302 207 411 37 108 67 241 146 631 97 485
138 617 234 758 66 98 148 154 261 178 76 17 159 17 313 -1z"/>
<path d="M8020 72566 c-132 -36 -222 -119 -300 -279 -99 -204 -155 -477 -180
-882 -8 -132 -10 -5325 -8 -19560 3 -18550 4 -19386 21 -19530 50 -414 141
-700 268 -839 115 -126 262 -158 564 -121 102 12 582 14 3253 15 2812 0 3147
-2 3270 -16 178 -21 325 -15 405 16 234 90 377 434 427 1035 8 92 10 972 8
2975 -4 3127 0 2892 -63 3206 -66 328 -185 546 -335 616 -109 51 -212 59 -430
33 -105 -12 -354 -15 -1553 -15 -1246 0 -1445 -2 -1565 -16 -160 -19 -325 -15
-392 10 -249 91 -390 440 -440 1090 -14 179 -14 5485 0 5667 30 383 89 651
187 841 120 234 272 302 591 264 114 -14 293 -16 1205 -16 590 -1 1115 -5
1167 -10 52 -4 145 -13 207 -20 140 -14 241 -2 331 40 200 94 326 390 389 915
17 141 18 321 18 2995 0 2682 -1 2854 -18 2995 -49 405 -136 678 -262 822 -96
110 -255 157 -447 132 -77 -9 -402 -14 -1278 -19 -1030 -5 -1193 -8 -1323 -24
-118 -14 -163 -15 -225 -7 -106 15 -206 65 -267 134 -145 166 -239 498 -274
973 -15 188 -15 7447 -1 7630 44 563 163 921 348 1044 77 51 157 70 291 69 64
0 141 -5 171 -11 37 -7 568 -13 1580 -17 1196 -6 1552 -10 1652 -21 152 -17
236 -7 333 39 191 89 309 354 382 856 16 111 17 330 21 2960 2 2044 0 2879 -8
2980 -44 547 -174 903 -370 1009 -108 59 -233 69 -485 41 -195 -22 -6285 -22
-6480 0 -156 18 -323 18 -385 1z"/>
<path d="M42956 72569 c-21 -5 -65 -24 -98 -41 -218 -116 -346 -491 -388
-1133 -14 -216 -14 -3359 0 -3567 37 -547 123 -838 349 -1183 171 -260 255
-511 308 -915 16 -123 18 -302 23 -2010 6 -2054 4 -1963 66 -2270 53 -257 128
-440 277 -670 146 -225 220 -403 271 -650 58 -281 58 -285 66 -1250 8 -978 11
-1046 70 -1342 54 -266 128 -447 279 -682 190 -294 261 -502 318 -941 14 -104
17 -370 23 -1995 5 -1707 7 -1887 23 -2010 55 -416 134 -646 324 -940 98 -153
151 -256 196 -386 63 -182 103 -387 127 -649 6 -68 10 -762 10 -1825 0 -1046
4 -1772 10 -1860 37 -524 125 -832 330 -1144 201 -307 272 -520 332 -991 8
-63 13 -659 17 -1965 7 -2053 5 -1963 67 -2270 53 -257 126 -435 276 -668 150
-232 220 -402 272 -653 63 -303 59 -179 66 -2229 5 -1329 10 -1906 18 -1980
53 -474 131 -713 332 -1025 134 -207 201 -359 253 -575 14 -58 60 -275 102
-482 96 -481 142 -623 244 -759 114 -152 265 -192 583 -155 192 22 1549 23
1733 1 300 -36 451 -4 561 119 138 152 228 445 275 891 7 68 14 451 19 1010 8
968 9 985 65 1261 50 243 130 435 273 656 187 289 265 517 319 928 16 123 18
301 23 2005 6 1704 8 1882 24 2010 52 412 133 652 317 935 44 69 100 164 125
212 90 178 156 418 188 678 8 69 18 145 22 170 3 25 9 893 13 1930 7 1694 9
1897 24 2003 56 386 139 624 308 882 165 253 237 433 294 733 45 236 47 293
55 1227 5 537 12 936 19 990 55 457 133 691 327 988 190 291 265 517 321 970
14 115 17 367 23 2012 5 1363 10 1903 19 1965 59 425 136 650 316 926 186 284
268 522 322 934 16 123 18 301 23 2005 6 1695 8 1883 24 2010 35 288 97 524
185 707 22 46 81 148 132 228 156 245 225 413 279 680 65 327 63 255 70 2320
7 2050 4 1936 66 2233 52 251 119 413 267 644 52 82 109 178 127 213 108 214
171 470 205 832 23 242 17 1789 -8 1978 -63 478 -174 766 -336 869 -112 72
-248 87 -506 56 -176 -21 -1503 -21 -1690 0 -151 17 -311 19 -374 4 -286 -66
-442 -434 -491 -1157 -6 -96 -10 -796 -10 -1870 0 -1065 -4 -1759 -10 -1827
-43 -472 -126 -734 -339 -1063 -139 -215 -215 -402 -265 -653 -62 -304 -59
-202 -66 -2254 -5 -1307 -10 -1907 -18 -1970 -61 -478 -129 -684 -332 -999
-147 -230 -217 -401 -270 -666 -68 -336 -63 -135 -70 -3290 -5 -2127 -9 -2877
-18 -2940 -64 -452 -130 -644 -332 -955 -140 -216 -214 -398 -264 -651 -62
-308 -59 -207 -66 -2259 -5 -1307 -10 -1907 -18 -1970 -59 -467 -130 -682
-326 -985 -195 -302 -280 -618 -316 -1165 -6 -99 -10 -806 -10 -1875 0 -1711
-2 -1817 -36 -2060 -58 -413 -202 -692 -342 -664 -111 22 -215 220 -277 527
-60 303 -58 228 -65 2297 -6 1669 -9 1910 -23 2020 -34 261 -73 436 -134 600
-42 115 -88 203 -184 351 -136 212 -215 413 -264 676 -51 272 -48 173 -56
2193 -3 1037 -9 1899 -12 1915 -3 17 -11 80 -17 140 -28 263 -104 548 -194
722 -25 48 -82 144 -127 213 -154 238 -235 447 -284 730 -49 284 -48 215 -55
2225 -4 1040 -11 1908 -14 1930 -4 22 -14 90 -22 150 -47 344 -129 570 -307
845 -182 280 -256 491 -314 895 -15 111 -17 346 -23 2980 -6 2567 -8 2874 -23
2992 -34 277 -78 473 -143 636 -44 112 -84 186 -184 342 -192 298 -263 514
-322 980 -8 63 -13 662 -18 1975 -5 1715 -8 1897 -23 2020 -60 461 -173 753
-333 859 -108 71 -252 87 -509 56 -176 -21 -1503 -21 -1690 0 -144 16 -319 18
-379 4z"/>
<path d="M31323 60805 c-260 -56 -406 -345 -480 -945 -17 -138 -18 -662 -21
-10735 -2 -7648 0 -10634 8 -10750 35 -507 122 -799 335 -1125 192 -294 269
-528 322 -977 13 -112 17 -310 23 -1043 8 -972 9 -987 65 -1266 58 -287 161
-502 280 -584 24 -17 74 -38 111 -47 59 -15 82 -15 219 -3 84 7 175 10 201 6
113 -16 207 -91 281 -223 74 -133 110 -262 204 -737 115 -584 146 -688 245
-838 118 -177 269 -223 606 -184 185 22 866 22 1043 1 386 -47 538 17 665 279
64 131 90 226 151 536 129 661 157 768 236 922 56 110 119 178 198 215 58 27
64 28 195 24 298 -10 320 -8 382 22 101 49 171 154 237 352 39 117 65 235 171
784 52 268 92 415 137 506 43 86 90 142 139 166 63 30 106 17 168 -52 98 -109
172 -332 210 -635 32 -254 36 -424 27 -1143 -5 -417 -5 -763 0 -850 30 -494
127 -842 280 -1005 120 -129 252 -157 559 -121 175 21 865 21 1040 0 236 -28
370 -16 470 42 178 105 297 398 357 883 17 139 18 723 18 13800 0 13070 -1
13661 -18 13800 -60 487 -183 784 -365 883 -105 57 -212 67 -437 41 -173 -20
-982 -16 -1168 6 -280 33 -434 -42 -549 -267 -87 -170 -133 -352 -180 -713 -9
-74 -13 -2045 -17 -8840 -6 -8326 -7 -8751 -24 -8880 -39 -292 -100 -522 -186
-702 -22 -46 -80 -146 -129 -224 -197 -309 -225 -389 -357 -1044 -84 -416
-115 -532 -180 -665 -124 -253 -282 -317 -660 -270 -165 21 -869 21 -1040 0
-223 -27 -354 -17 -457 36 -104 53 -204 204 -266 400 -28 86 -102 418 -132
589 -26 147 -92 431 -121 520 -44 133 -114 274 -209 420 -218 336 -301 616
-340 1145 -7 93 -10 2996 -10 8725 0 5693 -4 8625 -10 8705 -47 559 -177 908
-378 1018 -104 57 -216 68 -432 42 -92 -11 -237 -15 -550 -15 -313 0 -458 4
-550 15 -151 18 -234 18 -317 0z"/>
<path d="M58710 60802 c-173 -45 -284 -178 -370 -441 -17 -51 -53 -209 -81
-350 -113 -572 -132 -661 -171 -778 -65 -199 -157 -331 -265 -385 -51 -25
-120 -28 -388 -18 -152 6 -198 -10 -285 -99 -126 -128 -182 -279 -275 -746
-145 -728 -177 -824 -366 -1115 -198 -306 -272 -528 -326 -973 -12 -106 -17
-312 -23 -1032 -8 -967 -9 -981 -65 -1261 -51 -250 -123 -424 -273 -660 -102
-160 -140 -232 -188 -356 -69 -178 -120 -433 -144 -713 -6 -74 -10 -779 -10
-1841 0 -1084 -4 -1770 -10 -1855 -28 -366 -85 -609 -192 -824 -22 -44 -82
-143 -134 -221 -151 -227 -219 -383 -263 -604 -32 -164 -41 -260 -41 -452 0
-274 38 -510 114 -706 48 -126 65 -157 188 -344 60 -92 129 -209 153 -260 75
-162 130 -370 155 -583 6 -55 14 -113 17 -130 3 -16 9 -1319 13 -2895 6 -2616
8 -2876 23 -2989 56 -405 134 -631 317 -917 178 -277 229 -418 330 -917 128
-635 170 -758 351 -1037 132 -204 204 -361 253 -556 14 -55 61 -278 105 -495
83 -409 110 -514 166 -636 63 -137 134 -219 224 -262 54 -25 61 -26 196 -22
294 9 315 8 377 -22 111 -54 204 -192 272 -399 19 -57 55 -209 80 -338 147
-738 155 -773 222 -918 69 -151 160 -246 274 -288 67 -25 232 -29 392 -10 120
14 317 16 1560 16 1179 -1 1444 -3 1543 -15 340 -41 488 2 607 178 93 137 133
266 223 711 139 696 170 790 356 1076 197 304 270 519 326 950 11 94 16 390
22 1605 5 820 12 1618 16 1775 19 788 -103 1349 -314 1443 -41 18 -45 18 -87
2 -55 -21 -105 -78 -149 -170 -65 -137 -83 -210 -215 -895 -124 -640 -239
-800 -574 -800 -55 0 -155 7 -221 15 -185 22 -1523 21 -1719 -1 -164 -19 -328
-15 -396 10 -107 39 -196 128 -265 265 -53 105 -95 264 -170 638 -42 208 -88
425 -102 483 -53 218 -122 374 -262 590 -170 262 -226 416 -321 895 -39 196
-101 458 -132 555 -44 139 -104 256 -213 420 -142 213 -195 324 -245 516 -48
183 -64 324 -64 559 0 315 47 571 139 761 56 117 117 184 203 226 60 30 76 33
172 36 90 3 128 -1 260 -30 l155 -33 2510 -5 c2024 -5 2534 -9 2635 -20 111
-12 134 -11 203 3 106 22 162 50 227 117 154 156 253 499 290 1000 6 84 10
1155 10 2835 0 2309 -2 2724 -15 2869 -25 279 -59 458 -122 641 -50 143 -99
240 -204 405 -206 323 -278 547 -330 1030 -7 64 -14 454 -19 995 -8 959 -9
976 -66 1248 -52 250 -123 419 -275 657 -166 261 -218 395 -298 780 -97 465
-142 663 -173 754 -43 130 -114 272 -208 416 -92 142 -175 307 -214 425 -34
105 -72 269 -141 605 -64 312 -85 402 -122 515 -36 114 -120 282 -203 409
-196 299 -233 410 -369 1092 -77 385 -110 505 -178 637 -116 226 -271 301
-550 267 -184 -22 -2355 -27 -2540 -5 -167 19 -251 18 -333 -3z m1020 -5887
c69 -8 159 -15 200 -15 41 0 131 7 200 15 220 26 337 15 443 -42 124 -68 227
-244 291 -500 13 -54 57 -258 96 -453 39 -195 82 -398 96 -450 54 -198 120
-342 253 -545 151 -230 211 -386 290 -760 160 -754 184 -824 379 -1116 131
-196 188 -314 237 -494 140 -514 61 -1227 -163 -1476 -112 -125 -250 -152
-510 -98 -203 41 -196 41 -1292 40 -928 -1 -1087 -3 -1233 -18 -202 -20 -294
-12 -394 37 -208 103 -337 439 -388 1015 -22 249 -22 1611 0 1846 45 475 123
721 328 1039 195 301 214 361 387 1203 72 355 117 483 214 615 113 154 257
194 566 157z"/>
<path d="M67630 60806 c-269 -58 -408 -332 -487 -959 -16 -123 -17 -1099 -21
-13657 -2 -9804 0 -13570 8 -13690 27 -398 82 -665 180 -866 79 -164 181 -254
318 -283 73 -15 204 -14 347 4 173 22 854 21 1043 -1 177 -21 325 -15 405 15
189 73 315 304 387 711 53 304 50 -187 50 8034 0 4944 4 7652 10 7746 15 214
28 319 60 480 53 264 122 436 270 666 198 308 268 512 326 954 14 104 18 278
24 1030 7 975 9 1010 66 1303 63 323 176 540 322 620 104 57 216 68 432 42 91
-11 235 -15 524 -15 302 0 433 -4 540 -16 185 -21 338 -15 421 16 88 34 187
137 242 250 97 202 153 460 183 849 14 185 14 5453 0 5646 -38 511 -135 848
-291 1007 -108 110 -229 141 -462 117 -78 -8 -198 -14 -267 -14 -69 0 -189 6
-267 14 -166 17 -259 8 -351 -36 -105 -49 -198 -168 -261 -333 -38 -99 -70
-230 -146 -610 -42 -206 -85 -410 -96 -452 -47 -188 -123 -358 -239 -537 -166
-256 -209 -387 -331 -1004 -44 -226 -92 -449 -105 -496 -63 -217 -167 -361
-259 -361 -116 0 -232 203 -294 510 -56 282 -56 279 -56 1310 0 855 -2 970
-18 1095 -45 356 -122 604 -233 751 -50 66 -89 98 -156 129 -105 48 -199 55
-408 30 -174 -21 -924 -21 -1095 0 -143 17 -240 18 -315 1z"/>
<path d="M77227 60809 c-144 -28 -246 -116 -326 -282 -70 -142 -90 -220 -191
-727 -49 -245 -103 -490 -120 -545 -66 -206 -162 -350 -268 -402 -62 -31 -106
-33 -398 -23 -120 5 -121 4 -187 -28 -86 -43 -143 -108 -207 -237 -67 -135
-87 -211 -186 -698 -47 -231 -101 -471 -120 -535 -43 -145 -128 -318 -234
-482 -176 -269 -252 -491 -307 -895 -17 -123 -18 -342 -18 -3995 0 -3656 1
-3872 18 -3995 56 -408 130 -622 317 -910 189 -292 230 -417 361 -1082 83
-429 135 -589 232 -725 53 -75 100 -113 169 -140 44 -17 74 -18 281 -16 225 3
233 2 275 -20 97 -52 174 -152 236 -305 54 -134 83 -258 181 -772 70 -366 112
-512 189 -648 53 -95 108 -151 186 -191 111 -55 179 -62 410 -42 346 30 433
38 525 46 183 18 309 -17 411 -113 55 -51 74 -78 119 -171 70 -144 92 -222
175 -631 126 -621 158 -710 355 -1005 175 -262 242 -439 287 -765 19 -132 15
-455 -6 -595 -32 -215 -94 -415 -169 -550 -17 -30 -70 -114 -118 -186 -195
-292 -224 -381 -379 -1136 -56 -274 -91 -393 -153 -512 -58 -112 -128 -184
-219 -226 -66 -31 -84 -34 -183 -38 -65 -2 -166 3 -247 12 -185 22 -857 22
-1033 1 -381 -46 -535 13 -657 251 -72 139 -103 256 -199 739 -49 248 -103
493 -119 546 -90 292 -226 437 -452 483 -95 20 -143 20 -233 1 -101 -21 -206
-76 -270 -141 -123 -125 -213 -379 -267 -757 -22 -151 -22 -161 -26 -1992 -3
-1871 -2 -1978 34 -2218 50 -340 134 -568 303 -827 91 -139 167 -286 205 -401
40 -119 70 -247 150 -649 42 -206 90 -420 107 -475 64 -206 166 -358 278 -414
107 -54 222 -63 451 -36 103 12 313 15 1205 15 892 0 1102 -3 1205 -15 374
-44 529 14 648 242 89 171 107 240 236 913 58 299 94 430 156 556 60 123 127
201 208 241 62 30 84 32 382 22 130 -4 137 -3 193 23 77 36 146 111 200 217
62 118 98 238 152 501 178 867 195 920 396 1230 153 237 217 400 289 745 154
732 168 788 249 960 26 55 89 165 140 245 190 297 262 504 318 915 17 122 18
302 18 3010 0 2708 -1 2888 -18 3010 -55 405 -132 630 -306 898 -99 154 -148
245 -194 362 -50 127 -77 235 -168 690 -45 219 -96 445 -114 500 -46 142 -104
252 -170 323 -95 103 -183 125 -412 103 -199 -20 -278 3 -374 107 -67 71 -117
166 -163 303 -33 97 -53 192 -171 785 -77 393 -137 547 -259 670 -103 104
-146 118 -341 119 -143 0 -214 -5 -599 -42 -187 -17 -270 -14 -360 17 -117 40
-192 114 -265 265 -61 125 -94 245 -166 600 -127 633 -164 739 -365 1040 -166
247 -230 414 -276 715 -25 158 -25 481 -1 640 47 304 110 466 282 725 104 157
168 279 213 406 32 91 90 341 171 740 57 276 83 365 146 494 75 156 168 237
306 270 81 19 171 19 329 0 177 -21 916 -21 1085 0 346 43 499 -17 608 -239
76 -154 94 -228 232 -939 25 -131 57 -277 71 -325 50 -174 139 -321 214 -352
108 -45 231 99 305 355 55 191 95 507 97 780 1 72 -3 1343 -9 2825 -11 2871
-9 2765 -58 3052 -38 221 -110 432 -189 551 -106 160 -257 215 -508 187 -99
-12 -410 -15 -1603 -18 -1280 -2 -1498 -1 -1616 13 -149 16 -239 18 -312 4z"/>
<path d="M87501 60809 c-76 -15 -168 -65 -221 -120 -59 -61 -128 -192 -171
-321 -17 -51 -72 -304 -124 -563 -54 -269 -107 -511 -125 -565 -65 -195 -159
-333 -264 -388 -47 -25 -60 -27 -166 -26 -63 0 -164 2 -225 4 -166 6 -240 -26
-328 -143 -103 -137 -148 -274 -242 -737 -40 -201 -83 -407 -94 -457 -53 -234
-132 -420 -271 -633 -182 -280 -223 -398 -356 -1055 -102 -501 -144 -617 -329
-905 -147 -230 -218 -400 -269 -651 -58 -280 -58 -285 -66 -1249 -8 -977 -12
-1047 -70 -1340 -54 -267 -123 -435 -279 -680 -51 -80 -110 -181 -131 -225
-109 -229 -171 -499 -200 -874 -14 -189 -14 -9386 0 -9572 29 -372 100 -671
210 -890 18 -34 74 -128 125 -209 107 -169 139 -230 188 -360 64 -171 110
-388 138 -655 7 -69 14 -449 19 -1010 8 -967 9 -982 65 -1261 32 -157 74 -285
131 -395 57 -111 120 -179 199 -216 58 -27 64 -28 190 -24 296 10 325 8 387
-22 36 -18 76 -49 107 -84 112 -125 174 -299 256 -718 124 -633 147 -727 216
-871 41 -87 110 -177 163 -213 25 -17 74 -39 110 -48 57 -15 79 -16 202 -5
183 16 200 16 280 -9 59 -18 77 -30 129 -83 120 -124 185 -298 265 -706 126
-648 151 -750 221 -895 125 -261 275 -325 655 -281 199 23 2231 24 2419 1 373
-45 531 16 652 252 71 137 109 271 173 603 113 596 146 724 227 882 56 110
119 178 198 215 58 27 64 28 195 24 298 -10 320 -8 382 22 212 104 348 495
387 1112 5 83 11 965 13 1960 3 1693 2 1818 -15 1940 -57 415 -153 663 -281
724 -56 27 -93 20 -150 -30 -92 -81 -159 -259 -225 -599 -150 -772 -162 -823
-235 -972 -64 -128 -132 -196 -236 -234 -68 -25 -232 -29 -396 -10 -207 24
-1535 24 -1729 0 -379 -46 -536 19 -660 273 -59 120 -93 244 -151 538 -136
691 -152 753 -229 910 -75 152 -149 221 -268 252 -55 14 -79 14 -214 3 -83 -7
-175 -10 -204 -6 -255 34 -414 370 -474 1002 -24 255 -17 1823 9 2024 59 457
168 738 330 849 79 55 156 74 291 72 66 0 147 -6 180 -12 44 -9 645 -14 2275
-19 1765 -5 2237 -9 2323 -20 195 -24 331 12 433 114 117 119 191 300 248 608
59 319 57 151 53 4288 -3 3507 -4 3794 -20 3909 -56 403 -140 644 -322 921
-140 214 -220 407 -270 654 -56 279 -57 294 -65 1261 -6 719 -11 927 -24 1032
-22 185 -42 300 -77 431 -53 201 -110 326 -251 546 -190 299 -216 378 -362
1109 -95 470 -150 620 -276 748 -87 89 -133 105 -285 99 -268 -10 -337 -7
-388 18 -104 52 -192 175 -257 360 -39 110 -76 278 -170 761 -61 310 -95 432
-157 559 -77 158 -174 244 -314 277 -81 19 -161 19 -319 0 -100 -12 -277 -15
-890 -15 -613 0 -790 3 -890 15 -136 16 -241 18 -309 4z m999 -5894 c69 -8
159 -15 200 -15 41 0 131 7 200 15 212 25 312 18 415 -31 72 -34 117 -75 169
-153 93 -139 133 -264 212 -661 146 -734 179 -834 371 -1130 205 -318 285
-570 328 -1040 22 -238 22 -1599 0 -1845 -52 -590 -182 -922 -400 -1021 -92
-43 -191 -51 -377 -31 -242 26 -1594 26 -1836 0 -196 -21 -289 -12 -389 37
-180 88 -298 338 -363 767 -38 251 -42 384 -37 1258 4 906 5 931 62 1211 51
251 129 439 275 664 93 143 139 228 185 350 50 129 77 239 164 670 93 459 114
539 181 676 125 258 273 323 640 279z"/>
</g>
</svg>
